<svg xmlns="http://www.w3.org/2000/svg" xmlns:xlink="http://www.w3.org/1999/xlink" width="500" zoomAndPan="magnify" viewBox="0 0 375 374.999991" height="500" preserveAspectRatio="xMidYMid meet" version="1.0"><defs><g/><clipPath id="410fccb919"><path d="M 127 61.3125 L 245 61.3125 L 245 220 L 127 220 Z M 127 61.3125 " clip-rule="nonzero"/></clipPath></defs><rect x="-37.5" width="450" fill="#ffffff" y="-37.499999" height="449.999989" fill-opacity="1"/><rect x="-37.5" width="450" fill="#0e2551" y="-37.499999" height="449.999989" fill-opacity="1"/><g clip-path="url(#410fccb919)"><path fill="#447ff1" d="M 144.578125 202.835938 C 147.609375 203.523438 150.675781 203.878906 153.785156 203.90625 C 155.175781 203.90625 156.5625 203.835938 157.9375 203.726562 C 153.191406 200.523438 149.121094 196.613281 145.730469 192.003906 L 144.734375 180.800781 L 143.429688 180.800781 C 142.933594 180.800781 142.457031 180.707031 141.996094 180.515625 C 141.539062 180.328125 141.132812 180.058594 140.785156 179.707031 C 140.433594 179.355469 140.164062 178.949219 139.972656 178.492188 C 139.785156 178.035156 139.6875 177.558594 139.6875 177.0625 L 139.6875 157.796875 C 139.6875 157.320312 139.734375 156.847656 139.828125 156.378906 C 139.917969 155.914062 140.058594 155.457031 140.238281 155.019531 C 140.421875 154.578125 140.644531 154.160156 140.910156 153.765625 C 141.175781 153.367188 141.476562 153 141.8125 152.664062 C 142.148438 152.328125 142.515625 152.027344 142.910156 151.761719 C 143.308594 151.496094 143.726562 151.273438 144.167969 151.089844 C 144.605469 150.910156 145.058594 150.773438 145.527344 150.679688 C 145.996094 150.585938 146.464844 150.539062 146.941406 150.542969 L 150.261719 150.542969 C 150.578125 150.542969 150.863281 150.453125 151.117188 150.265625 C 151.371094 150.078125 151.542969 149.835938 151.636719 149.535156 C 151.730469 149.234375 151.722656 148.933594 151.617188 148.636719 C 151.511719 148.339844 151.328125 148.105469 151.066406 147.929688 C 150.433594 147.527344 149.859375 147.050781 149.347656 146.503906 C 148.832031 145.953125 148.394531 145.351562 148.03125 144.691406 C 147.671875 144.03125 147.398438 143.339844 147.210938 142.613281 C 147.023438 141.882812 146.929688 141.144531 146.929688 140.394531 L 146.929688 138.878906 C 146.929688 138.257812 146.996094 137.640625 147.125 137.027344 C 147.253906 136.417969 147.445312 135.828125 147.699219 135.257812 C 147.949219 134.6875 148.257812 134.148438 148.625 133.640625 C 148.988281 133.136719 149.402344 132.675781 149.867188 132.253906 C 150.328125 131.835938 150.828125 131.46875 151.367188 131.15625 C 151.90625 130.839844 152.472656 130.585938 153.066406 130.390625 C 153.65625 130.191406 154.265625 130.0625 154.882812 129.992188 C 155.503906 129.921875 156.125 129.917969 156.746094 129.980469 C 161.394531 130.421875 164.800781 134.582031 164.800781 139.257812 L 164.800781 140.410156 C 164.800781 141.160156 164.707031 141.902344 164.519531 142.628906 C 164.335938 143.355469 164.058594 144.050781 163.699219 144.710938 C 163.335938 145.367188 162.898438 145.972656 162.386719 146.519531 C 161.871094 147.066406 161.296875 147.542969 160.664062 147.945312 C 160.40625 148.125 160.226562 148.363281 160.125 148.65625 C 160.019531 148.953125 160.015625 149.25 160.109375 149.550781 C 160.203125 149.851562 160.375 150.09375 160.625 150.277344 C 160.878906 150.464844 161.160156 150.558594 161.476562 150.558594 L 164.792969 150.558594 C 165.957031 150.558594 167.054688 150.828125 168.089844 151.359375 C 169.121094 151.890625 169.980469 152.628906 170.65625 153.574219 C 170.007812 153.773438 169.382812 154.023438 168.773438 154.328125 C 168.164062 154.628906 167.585938 154.972656 167.03125 155.367188 C 166.480469 155.761719 165.960938 156.195312 165.476562 156.671875 C 164.996094 157.144531 164.550781 157.65625 164.148438 158.203125 C 163.746094 158.746094 163.390625 159.320312 163.078125 159.925781 C 162.765625 160.527344 162.503906 161.148438 162.292969 161.792969 C 162.078125 162.4375 161.917969 163.09375 161.8125 163.765625 C 161.703125 164.433594 161.648438 165.109375 161.648438 165.785156 L 161.648438 192.308594 C 161.648438 192.917969 161.738281 193.511719 161.914062 194.09375 C 162.089844 194.679688 162.347656 195.222656 162.6875 195.730469 C 163.023438 196.238281 163.429688 196.683594 163.898438 197.074219 C 164.367188 197.460938 164.882812 197.773438 165.445312 198.007812 L 165.019531 202.726562 C 167.660156 202.160156 170.242188 201.394531 172.761719 200.425781 L 171.664062 194.851562 L 167.832031 194.851562 C 167.496094 194.851562 167.167969 194.785156 166.859375 194.65625 C 166.546875 194.527344 166.269531 194.34375 166.03125 194.105469 C 165.792969 193.867188 165.609375 193.59375 165.480469 193.28125 C 165.351562 192.96875 165.289062 192.644531 165.289062 192.308594 L 165.289062 165.769531 C 165.289062 165.167969 165.347656 164.570312 165.464844 163.980469 C 165.582031 163.390625 165.757812 162.820312 165.988281 162.265625 C 166.21875 161.707031 166.5 161.179688 166.835938 160.679688 C 167.171875 160.179688 167.550781 159.71875 167.976562 159.292969 C 168.402344 158.867188 168.863281 158.488281 169.363281 158.152344 C 169.863281 157.820312 170.390625 157.539062 170.949219 157.308594 C 171.503906 157.078125 172.078125 156.902344 172.667969 156.785156 C 173.257812 156.667969 173.851562 156.609375 174.453125 156.609375 L 178.648438 156.609375 C 179.046875 156.613281 179.40625 156.496094 179.726562 156.261719 C 180.046875 156.027344 180.265625 155.71875 180.382812 155.339844 C 180.5 154.960938 180.496094 154.582031 180.363281 154.207031 C 180.230469 153.832031 180 153.53125 179.671875 153.308594 C 178.871094 152.800781 178.144531 152.199219 177.496094 151.507812 C 176.84375 150.8125 176.292969 150.050781 175.835938 149.21875 C 175.378906 148.386719 175.03125 147.511719 174.796875 146.589844 C 174.558594 145.671875 174.441406 144.738281 174.441406 143.789062 L 174.441406 141.855469 C 174.441406 141.113281 174.515625 140.378906 174.660156 139.652344 C 174.804688 138.925781 175.019531 138.21875 175.300781 137.535156 C 175.585938 136.847656 175.933594 136.199219 176.34375 135.582031 C 176.757812 134.96875 177.226562 134.398438 177.75 133.871094 C 178.273438 133.347656 178.84375 132.882812 179.460938 132.46875 C 180.078125 132.058594 180.730469 131.710938 181.414062 131.429688 C 182.097656 131.144531 182.804688 130.929688 183.53125 130.789062 C 184.257812 130.644531 184.992188 130.570312 185.734375 130.574219 C 185.792969 130.574219 185.851562 130.574219 185.90625 130.574219 C 185.964844 130.574219 186.023438 130.574219 186.082031 130.574219 C 186.820312 130.570312 187.554688 130.644531 188.285156 130.785156 C 189.011719 130.929688 189.71875 131.144531 190.402344 131.425781 C 191.089844 131.710938 191.738281 132.058594 192.355469 132.46875 C 192.972656 132.878906 193.542969 133.347656 194.070312 133.871094 C 194.59375 134.394531 195.0625 134.964844 195.472656 135.582031 C 195.886719 136.199219 196.234375 136.847656 196.519531 137.53125 C 196.800781 138.21875 197.015625 138.925781 197.160156 139.652344 C 197.304688 140.378906 197.378906 141.113281 197.378906 141.855469 L 197.378906 143.769531 C 197.378906 144.71875 197.261719 145.652344 197.027344 146.574219 C 196.792969 147.492188 196.445312 148.367188 195.988281 149.199219 C 195.53125 150.035156 194.980469 150.796875 194.332031 151.488281 C 193.679688 152.179688 192.957031 152.78125 192.15625 153.289062 C 191.828125 153.515625 191.597656 153.8125 191.464844 154.1875 C 191.332031 154.5625 191.324219 154.9375 191.441406 155.320312 C 191.558594 155.699219 191.777344 156.007812 192.097656 156.242188 C 192.417969 156.476562 192.777344 156.59375 193.171875 156.59375 L 197.375 156.59375 C 197.972656 156.59375 198.570312 156.652344 199.160156 156.769531 C 199.75 156.886719 200.324219 157.058594 200.878906 157.289062 C 201.433594 157.519531 201.960938 157.800781 202.460938 158.136719 C 202.964844 158.46875 203.425781 158.851562 203.851562 159.273438 C 204.277344 159.699219 204.65625 160.164062 204.992188 160.664062 C 205.324219 161.164062 205.609375 161.691406 205.839844 162.246094 C 206.070312 162.800781 206.242188 163.375 206.359375 163.964844 C 206.476562 164.554688 206.539062 165.148438 206.539062 165.75 L 206.539062 192.308594 C 206.539062 192.644531 206.472656 192.96875 206.34375 193.28125 C 206.214844 193.589844 206.03125 193.863281 205.792969 194.101562 C 205.554688 194.339844 205.277344 194.523438 204.96875 194.652344 C 204.65625 194.78125 204.332031 194.84375 203.996094 194.84375 L 200.164062 194.84375 L 198.398438 203.742188 C 199.023438 207.300781 197.546875 211.328125 194.484375 214.019531 C 191.894531 216.328125 189.066406 218.296875 186 219.925781 C 191.550781 219.914062 196.984375 219.121094 202.308594 217.550781 C 204.664062 216.097656 206.851562 214.425781 208.875 212.535156 C 210.710938 210.738281 212.757812 209.234375 215.015625 208.011719 C 216.632812 207.144531 218.359375 206.695312 220.195312 206.667969 C 220.941406 206.667969 221.675781 206.761719 222.398438 206.949219 C 223.835938 205.792969 225.210938 204.570312 226.53125 203.28125 C 227.851562 201.996094 229.109375 200.648438 230.300781 199.242188 C 231.492188 197.835938 232.617188 196.375 233.667969 194.859375 C 234.722656 193.347656 235.703125 191.789062 236.609375 190.183594 C 237.515625 188.574219 238.339844 186.929688 239.089844 185.246094 C 239.839844 183.558594 240.507812 181.84375 241.09375 180.09375 C 241.679688 178.347656 242.183594 176.574219 242.601562 174.777344 C 243.019531 172.984375 243.351562 171.171875 243.597656 169.34375 C 243.84375 167.515625 244 165.679688 244.074219 163.839844 C 244.144531 161.996094 244.128906 160.15625 244.027344 158.3125 C 243.921875 156.472656 243.734375 154.640625 243.457031 152.816406 C 243.179688 150.996094 242.816406 149.1875 242.367188 147.398438 C 241.921875 145.609375 241.386719 143.847656 240.773438 142.109375 C 240.15625 140.371094 239.460938 138.667969 238.683594 136.996094 C 237.902344 135.324219 237.046875 133.691406 236.117188 132.101562 C 235.183594 130.511719 234.175781 128.96875 233.097656 127.472656 L 188.730469 62.878906 C 188.566406 62.636719 188.375 62.417969 188.15625 62.222656 C 187.9375 62.03125 187.699219 61.863281 187.4375 61.726562 C 187.179688 61.589844 186.90625 61.488281 186.625 61.417969 C 186.339844 61.347656 186.050781 61.3125 185.757812 61.3125 C 185.464844 61.3125 185.175781 61.347656 184.890625 61.417969 C 184.609375 61.488281 184.335938 61.589844 184.078125 61.726562 C 183.816406 61.863281 183.578125 62.03125 183.359375 62.222656 C 183.140625 62.417969 182.949219 62.636719 182.785156 62.878906 L 138.417969 127.472656 C 137.414062 128.863281 136.46875 130.296875 135.589844 131.769531 C 134.714844 133.242188 133.902344 134.753906 133.15625 136.296875 C 132.410156 137.84375 131.738281 139.421875 131.132812 141.027344 C 130.527344 142.632812 129.992188 144.261719 129.53125 145.914062 C 129.070312 147.566406 128.683594 149.234375 128.371094 150.921875 C 128.054688 152.609375 127.816406 154.308594 127.652344 156.015625 C 127.492188 157.722656 127.402344 159.4375 127.390625 161.152344 C 127.378906 162.867188 127.445312 164.582031 127.582031 166.292969 C 127.722656 168 127.9375 169.703125 128.230469 171.394531 C 128.519531 173.085938 128.882812 174.757812 129.320312 176.417969 C 129.761719 178.078125 130.273438 179.714844 130.855469 181.328125 C 131.4375 182.941406 132.089844 184.527344 132.816406 186.082031 C 133.539062 187.636719 134.328125 189.160156 135.1875 190.644531 C 136.046875 192.128906 136.96875 193.574219 137.953125 194.980469 C 138.941406 196.382812 139.988281 197.742188 141.09375 199.054688 C 142.199219 200.367188 143.359375 201.625 144.578125 202.835938 Z M 207.019531 138.878906 C 207.019531 138.257812 207.085938 137.640625 207.214844 137.027344 C 207.34375 136.417969 207.535156 135.828125 207.785156 135.257812 C 208.039062 134.6875 208.347656 134.148438 208.714844 133.640625 C 209.078125 133.136719 209.492188 132.675781 209.957031 132.253906 C 210.417969 131.835938 210.917969 131.46875 211.457031 131.15625 C 211.996094 130.839844 212.5625 130.585938 213.15625 130.390625 C 213.746094 130.191406 214.351562 130.0625 214.972656 129.992188 C 215.59375 129.921875 216.214844 129.917969 216.835938 129.980469 C 221.484375 130.421875 224.890625 134.582031 224.890625 139.257812 L 224.890625 140.410156 C 224.890625 141.160156 224.796875 141.902344 224.609375 142.628906 C 224.421875 143.355469 224.148438 144.050781 223.789062 144.710938 C 223.425781 145.367188 222.988281 145.972656 222.476562 146.519531 C 221.960938 147.066406 221.386719 147.542969 220.753906 147.945312 C 220.492188 148.121094 220.308594 148.359375 220.203125 148.65625 C 220.097656 148.953125 220.089844 149.25 220.183594 149.550781 C 220.277344 149.851562 220.449219 150.097656 220.703125 150.28125 C 220.957031 150.46875 221.242188 150.5625 221.558594 150.558594 L 224.878906 150.558594 C 225.355469 150.558594 225.824219 150.605469 226.292969 150.699219 C 226.761719 150.789062 227.214844 150.929688 227.652344 151.109375 C 228.09375 151.292969 228.511719 151.515625 228.90625 151.78125 C 229.304688 152.046875 229.671875 152.347656 230.007812 152.683594 C 230.34375 153.019531 230.644531 153.386719 230.910156 153.78125 C 231.175781 154.179688 231.398438 154.597656 231.578125 155.035156 C 231.761719 155.476562 231.898438 155.929688 231.992188 156.398438 C 232.085938 156.863281 232.132812 157.335938 232.132812 157.8125 L 232.132812 177.0625 C 232.132812 177.558594 232.039062 178.035156 231.847656 178.492188 C 231.65625 178.949219 231.386719 179.355469 231.035156 179.707031 C 230.6875 180.058594 230.28125 180.328125 229.824219 180.515625 C 229.367188 180.707031 228.886719 180.800781 228.394531 180.800781 L 227.085938 180.800781 L 226.125 191.445312 C 223.703125 194.863281 220.890625 197.925781 217.691406 200.632812 C 214.492188 203.34375 211.003906 205.609375 207.234375 207.4375 L 206.382812 198.019531 C 206.945312 197.785156 207.460938 197.472656 207.929688 197.085938 C 208.398438 196.695312 208.800781 196.25 209.140625 195.742188 C 209.476562 195.234375 209.734375 194.691406 209.910156 194.105469 C 210.089844 193.523438 210.179688 192.929688 210.179688 192.320312 L 210.179688 165.769531 C 210.179688 165.089844 210.125 164.417969 210.015625 163.746094 C 209.90625 163.078125 209.746094 162.421875 209.535156 161.777344 C 209.320312 161.132812 209.058594 160.507812 208.75 159.90625 C 208.4375 159.304688 208.082031 158.730469 207.675781 158.183594 C 207.273438 157.640625 206.832031 157.128906 206.347656 156.652344 C 205.863281 156.175781 205.347656 155.742188 204.792969 155.351562 C 204.242188 154.957031 203.660156 154.609375 203.054688 154.308594 C 202.445312 154.007812 201.816406 153.757812 201.171875 153.554688 C 201.847656 152.609375 202.703125 151.875 203.738281 151.339844 C 204.773438 150.808594 205.871094 150.542969 207.03125 150.542969 L 210.351562 150.542969 C 210.667969 150.542969 210.953125 150.453125 211.207031 150.265625 C 211.460938 150.078125 211.632812 149.835938 211.726562 149.535156 C 211.820312 149.234375 211.8125 148.933594 211.707031 148.636719 C 211.601562 148.339844 211.417969 148.105469 211.15625 147.929688 C 210.523438 147.527344 209.949219 147.050781 209.433594 146.503906 C 208.921875 145.953125 208.484375 145.351562 208.121094 144.691406 C 207.761719 144.03125 207.488281 143.339844 207.300781 142.613281 C 207.113281 141.882812 207.019531 141.144531 207.019531 140.394531 Z M 167.46875 99.183594 L 178.941406 99.183594 L 178.941406 87.707031 L 192.574219 87.707031 L 192.574219 99.179688 L 204.039062 99.179688 L 204.039062 112.808594 L 192.574219 112.808594 L 192.574219 124.277344 L 178.941406 124.277344 L 178.941406 112.808594 L 167.46875 112.808594 Z M 167.46875 99.183594 " fill-opacity="1" fill-rule="nonzero"/></g><path fill="#bae933" d="M 197.632812 75.84375 L 217.003906 104.035156 C 218.15625 104.667969 219.292969 105.335938 220.410156 106.035156 C 221.523438 106.738281 222.617188 107.472656 223.6875 108.242188 C 224.761719 109.011719 225.804688 109.8125 226.828125 110.644531 C 227.851562 111.476562 228.847656 112.335938 229.816406 113.230469 C 230.785156 114.121094 231.726562 115.042969 232.640625 115.992188 C 233.554688 116.945312 234.4375 117.921875 235.292969 118.925781 C 236.148438 119.929688 236.96875 120.957031 237.761719 122.011719 C 238.554688 123.0625 239.3125 124.140625 240.039062 125.242188 C 240.765625 126.339844 241.457031 127.460938 242.117188 128.601562 C 242.773438 129.746094 243.394531 130.90625 243.984375 132.085938 C 244.570312 133.265625 245.121094 134.460938 245.636719 135.675781 C 246.152344 136.890625 246.628906 138.117188 247.066406 139.359375 C 247.507812 140.601562 247.910156 141.855469 248.273438 143.125 C 248.636719 144.390625 248.960938 145.667969 249.246094 146.953125 C 249.535156 148.242188 249.78125 149.535156 249.988281 150.835938 C 250.195312 152.136719 250.363281 153.445312 250.492188 154.757812 C 250.617188 156.066406 250.707031 157.382812 250.753906 158.699219 C 250.800781 160.015625 250.808594 161.332031 250.777344 162.652344 C 250.746094 163.96875 250.671875 165.285156 250.558594 166.597656 C 250.449219 167.910156 250.296875 169.21875 250.105469 170.523438 C 249.910156 171.828125 249.679688 173.125 249.410156 174.414062 C 249.140625 175.703125 248.828125 176.984375 248.480469 178.253906 C 248.132812 179.527344 247.746094 180.785156 247.320312 182.035156 C 246.894531 183.28125 246.433594 184.515625 245.933594 185.734375 C 245.429688 186.953125 244.894531 188.15625 244.320312 189.34375 C 243.746094 190.53125 243.140625 191.699219 242.496094 192.847656 C 241.851562 193.996094 241.171875 195.125 240.457031 196.234375 C 239.746094 197.34375 239 198.429688 238.21875 199.492188 C 237.441406 200.554688 236.628906 201.59375 235.785156 202.605469 C 234.945312 203.621094 234.070312 204.605469 233.167969 205.566406 C 232.265625 206.527344 231.335938 207.460938 230.378906 208.363281 C 229.417969 209.269531 228.433594 210.144531 227.421875 210.988281 C 227.476562 211.089844 227.546875 211.1875 227.597656 211.296875 C 227.730469 211.589844 227.851562 211.871094 227.957031 212.1875 C 228.539062 212.089844 229.128906 212.039062 229.722656 212.039062 C 230.425781 212.019531 231.121094 212.101562 231.804688 212.273438 C 232.488281 212.449219 233.136719 212.714844 233.746094 213.070312 C 234.355469 213.425781 234.90625 213.859375 235.394531 214.367188 C 235.882812 214.878906 236.292969 215.445312 236.625 216.066406 C 236.925781 216.644531 237.152344 217.25 237.304688 217.882812 C 238.136719 217.988281 238.933594 218.222656 239.695312 218.578125 C 240.453125 218.9375 241.140625 219.40625 241.75 219.980469 C 242.363281 220.558594 242.867188 221.214844 243.269531 221.953125 C 243.671875 222.691406 243.949219 223.472656 244.105469 224.300781 C 245.589844 222.925781 247.027344 221.5 248.414062 220.027344 C 249.800781 218.550781 251.132812 217.03125 252.410156 215.460938 C 253.6875 213.894531 254.910156 212.28125 256.078125 210.625 C 257.242188 208.972656 258.347656 207.277344 259.390625 205.542969 C 260.4375 203.8125 261.421875 202.042969 262.34375 200.242188 C 263.261719 198.441406 264.117188 196.605469 264.910156 194.746094 C 265.703125 192.882812 266.425781 190.992188 267.085938 189.078125 C 267.742188 187.164062 268.332031 185.230469 268.855469 183.277344 C 269.375 181.320312 269.828125 179.347656 270.210938 177.359375 C 270.59375 175.375 270.90625 173.375 271.148438 171.367188 C 271.390625 169.355469 271.558594 167.339844 271.660156 165.320312 C 271.757812 163.296875 271.785156 161.277344 271.742188 159.253906 C 271.699219 157.230469 271.585938 155.210938 271.398438 153.195312 C 271.214844 151.179688 270.957031 149.171875 270.628906 147.175781 C 270.300781 145.179688 269.90625 143.195312 269.4375 141.226562 C 268.96875 139.257812 268.433594 137.304688 267.828125 135.375 C 267.222656 133.445312 266.550781 131.535156 265.8125 129.652344 C 265.074219 127.769531 264.269531 125.914062 263.398438 124.085938 C 262.527344 122.257812 261.59375 120.464844 260.597656 118.703125 C 259.597656 116.941406 258.542969 115.21875 257.421875 113.53125 C 256.304688 111.84375 255.128906 110.199219 253.890625 108.59375 C 252.65625 106.992188 251.367188 105.433594 250.023438 103.921875 C 248.679688 102.410156 247.28125 100.945312 245.832031 99.53125 C 244.386719 98.117188 242.890625 96.757812 241.347656 95.449219 C 239.800781 94.140625 238.214844 92.886719 236.582031 91.691406 C 234.949219 90.496094 233.277344 89.355469 231.5625 88.277344 C 229.851562 87.199219 228.101562 86.183594 226.316406 85.230469 C 224.535156 84.273438 222.71875 83.382812 220.871094 82.554688 C 219.023438 81.730469 217.148438 80.96875 215.246094 80.273438 C 213.347656 79.578125 211.421875 78.953125 209.476562 78.394531 C 207.535156 77.835938 205.570312 77.34375 203.589844 76.925781 C 201.609375 76.503906 199.621094 76.152344 197.613281 75.875 Z M 197.632812 75.84375 " fill-opacity="1" fill-rule="nonzero"/><path fill="#bae933" d="M 132.96875 199.007812 C 132.300781 198.078125 131.65625 197.128906 131.035156 196.164062 C 130.417969 195.199219 129.824219 194.21875 129.257812 193.222656 C 128.6875 192.226562 128.148438 191.214844 127.632812 190.191406 C 127.121094 189.164062 126.632812 188.128906 126.175781 187.078125 C 125.714844 186.027344 125.285156 184.964844 124.882812 183.890625 C 124.480469 182.816406 124.105469 181.734375 123.761719 180.640625 C 123.414062 179.546875 123.097656 178.445312 122.8125 177.335938 C 122.523438 176.222656 122.265625 175.105469 122.039062 173.984375 C 121.808594 172.859375 121.613281 171.730469 121.445312 170.597656 C 121.277344 169.460938 121.136719 168.324219 121.027344 167.183594 C 120.921875 166.042969 120.84375 164.898438 120.796875 163.75 C 120.75 162.605469 120.730469 161.460938 120.742188 160.3125 C 120.757812 159.167969 120.800781 158.019531 120.875 156.878906 C 120.949219 155.734375 121.050781 154.589844 121.1875 153.453125 C 121.320312 152.3125 121.484375 151.179688 121.679688 150.050781 C 121.871094 148.917969 122.097656 147.792969 122.351562 146.675781 C 122.605469 145.558594 122.886719 144.449219 123.199219 143.34375 C 123.511719 142.242188 123.851562 141.148438 124.222656 140.0625 C 124.59375 138.976562 124.992188 137.902344 125.417969 136.835938 C 125.847656 135.773438 126.300781 134.722656 126.785156 133.679688 C 127.265625 132.640625 127.777344 131.613281 128.316406 130.601562 C 128.851562 129.589844 129.414062 128.589844 130.003906 127.605469 C 130.59375 126.625 131.210938 125.65625 131.851562 124.707031 C 132.492188 123.753906 133.160156 122.824219 133.851562 121.90625 C 134.539062 120.992188 135.253906 120.09375 135.992188 119.21875 C 136.730469 118.339844 137.492188 117.480469 138.273438 116.644531 C 139.058594 115.808594 139.863281 114.992188 140.691406 114.195312 C 141.515625 113.402344 142.363281 112.628906 143.230469 111.878906 C 144.097656 111.128906 144.984375 110.402344 145.890625 109.699219 C 146.796875 108.996094 147.71875 108.320312 148.660156 107.664062 C 149.605469 107.011719 150.5625 106.382812 151.539062 105.777344 C 152.511719 105.175781 153.503906 104.597656 154.507812 104.046875 L 173.878906 75.855469 C 172.472656 76.054688 171.074219 76.285156 169.679688 76.550781 C 168.289062 76.816406 166.902344 77.117188 165.523438 77.449219 C 164.144531 77.785156 162.777344 78.152344 161.414062 78.554688 C 160.054688 78.957031 158.707031 79.390625 157.367188 79.859375 C 156.027344 80.328125 154.703125 80.832031 153.386719 81.363281 C 152.074219 81.898438 150.773438 82.464844 149.488281 83.0625 C 148.203125 83.660156 146.929688 84.292969 145.675781 84.953125 C 144.421875 85.613281 143.183594 86.304688 141.960938 87.027344 C 140.742188 87.75 139.539062 88.503906 138.355469 89.285156 C 137.171875 90.066406 136.007812 90.875 134.867188 91.714844 C 133.722656 92.554688 132.601562 93.421875 131.5 94.316406 C 130.398438 95.210938 129.320312 96.132812 128.265625 97.082031 C 127.210938 98.027344 126.179688 99 125.171875 100 C 124.164062 101 123.183594 102.023438 122.226562 103.070312 C 121.269531 104.117188 120.339844 105.1875 119.4375 106.28125 C 118.535156 107.375 117.65625 108.488281 116.808594 109.625 C 115.960938 110.761719 115.140625 111.921875 114.351562 113.097656 C 113.558594 114.273438 112.796875 115.472656 112.066406 116.6875 C 111.332031 117.902344 110.632812 119.132812 109.960938 120.382812 C 109.289062 121.632812 108.648438 122.898438 108.039062 124.179688 C 107.429688 125.460938 106.855469 126.753906 106.308594 128.066406 C 105.765625 129.375 105.253906 130.695312 104.773438 132.03125 C 104.292969 133.367188 103.847656 134.710938 103.433594 136.070312 C 103.023438 137.425781 102.644531 138.792969 102.296875 140.167969 C 101.953125 141.542969 101.640625 142.929688 101.363281 144.320312 C 101.085938 145.710938 100.84375 147.109375 100.636719 148.511719 C 100.429688 149.914062 100.257812 151.320312 100.117188 152.734375 C 99.980469 154.144531 99.875 155.558594 99.808594 156.976562 C 99.738281 158.390625 99.707031 159.808594 99.707031 161.226562 C 99.710938 162.648438 99.746094 164.0625 99.816406 165.480469 C 99.890625 166.898438 99.996094 168.3125 100.136719 169.722656 C 100.28125 171.132812 100.457031 172.542969 100.667969 173.945312 C 107.824219 183.625 120.066406 193.367188 132.96875 199.007812 Z M 132.96875 199.007812 " fill-opacity="1" fill-rule="nonzero"/><path fill="#447ff1" d="M 231.832031 224.320312 C 236.207031 218.132812 231.085938 212.0625 222.398438 219.777344 C 226.632812 214.730469 223.285156 208.4375 216.886719 211.695312 C 212.5625 213.898438 210.914062 217.109375 204.390625 221.101562 C 189.433594 230.246094 171.664062 225.609375 166.996094 220.972656 C 178.335938 219.824219 185.296875 216.589844 191.734375 210.921875 C 196.914062 206.355469 195.871094 195.050781 176.269531 203.445312 C 145.601562 216.585938 113.390625 199.0625 102.351562 182.421875 C 102.792969 184.144531 103.289062 185.851562 103.835938 187.542969 C 104.382812 189.234375 104.980469 190.90625 105.632812 192.5625 C 106.28125 194.214844 106.984375 195.847656 107.738281 197.460938 C 108.488281 199.070312 109.289062 200.65625 110.140625 202.21875 C 110.988281 203.777344 111.886719 205.3125 112.832031 206.816406 C 113.777344 208.324219 114.769531 209.796875 115.804688 211.242188 C 116.84375 212.6875 117.921875 214.097656 119.046875 215.472656 C 120.171875 216.851562 121.335938 218.191406 122.542969 219.496094 C 123.75 220.800781 124.996094 222.066406 126.28125 223.296875 C 127.566406 224.523438 128.890625 225.710938 130.25 226.855469 C 131.609375 228 133.003906 229.105469 134.429688 230.164062 C 135.855469 231.222656 137.316406 232.238281 138.804688 233.207031 C 140.296875 234.175781 141.816406 235.097656 143.363281 235.972656 C 144.910156 236.847656 146.484375 237.671875 148.082031 238.449219 C 149.679688 239.226562 151.300781 239.957031 152.945312 240.632812 C 154.589844 241.308594 156.25 241.933594 157.933594 242.507812 C 159.617188 243.082031 161.316406 243.605469 163.03125 244.074219 C 164.746094 244.542969 166.472656 244.957031 168.210938 245.320312 C 169.953125 245.679688 171.703125 245.988281 173.460938 246.242188 C 175.222656 246.496094 176.988281 246.691406 178.757812 246.835938 C 180.53125 246.980469 182.304688 247.070312 184.082031 247.105469 C 185.859375 247.136719 187.636719 247.117188 189.414062 247.039062 C 191.1875 246.964844 192.960938 246.832031 194.730469 246.648438 C 196.496094 246.460938 198.257812 246.222656 200.011719 245.925781 C 201.761719 245.628906 203.503906 245.28125 205.238281 244.878906 C 206.96875 244.476562 208.683594 244.019531 210.386719 243.511719 C 212.089844 243 213.777344 242.4375 215.445312 241.824219 C 217.113281 241.210938 218.761719 240.546875 220.390625 239.832031 C 222.015625 239.113281 223.621094 238.347656 225.199219 237.535156 C 226.777344 236.71875 228.332031 235.855469 229.859375 234.945312 C 231.382812 234.03125 232.878906 233.074219 234.347656 232.070312 C 235.8125 231.066406 237.25 230.015625 238.648438 228.925781 C 242.644531 225.535156 237.964844 218.21875 231.832031 224.320312 Z M 231.832031 224.320312 " fill-opacity="1" fill-rule="nonzero"/><g fill="#faffff" fill-opacity="1"><g transform="translate(105.107486, 287.713018)"><g><path d="M -0.875 -23.90625 L 5.671875 -23.90625 L 10.65625 -16.25 L 15.640625 -23.90625 L 22.1875 -23.90625 L 13.390625 -10.71875 L 13.390625 0 L 7.9375 0 L 7.9375 -10.71875 Z M -0.875 -23.90625 "/></g></g></g><g fill="#faffff" fill-opacity="1"><g transform="translate(126.419806, 287.713018)"><g><path d="M 0.671875 -11.96875 C 0.671875 -15.425781 1.847656 -18.347656 4.203125 -20.734375 C 6.554688 -23.128906 9.394531 -24.328125 12.71875 -24.328125 C 16.0625 -24.328125 18.898438 -23.132812 21.234375 -20.75 C 23.566406 -18.363281 24.734375 -15.4375 24.734375 -11.96875 C 24.734375 -8.46875 23.582031 -5.523438 21.28125 -3.140625 C 18.988281 -0.753906 16.132812 0.4375 12.71875 0.4375 C 9.21875 0.4375 6.332031 -0.742188 4.0625 -3.109375 C 1.800781 -5.472656 0.671875 -8.425781 0.671875 -11.96875 Z M 6.546875 -11.96875 C 6.546875 -10.707031 6.738281 -9.5625 7.125 -8.53125 C 7.507812 -7.5 8.1875 -6.625 9.15625 -5.90625 C 10.125 -5.195312 11.3125 -4.84375 12.71875 -4.84375 C 14.75 -4.84375 16.28125 -5.535156 17.3125 -6.921875 C 18.34375 -8.316406 18.859375 -10 18.859375 -11.96875 C 18.859375 -13.914062 18.332031 -15.585938 17.28125 -16.984375 C 16.226562 -18.390625 14.707031 -19.09375 12.71875 -19.09375 C 10.75 -19.09375 9.226562 -18.390625 8.15625 -16.984375 C 7.082031 -15.585938 6.546875 -13.914062 6.546875 -11.96875 Z M 6.546875 -11.96875 "/></g></g></g><g fill="#faffff" fill-opacity="1"><g transform="translate(151.815045, 287.713018)"><g><path d="M 2.46875 -23.65625 C 2.96875 -24.101562 3.546875 -24.328125 4.203125 -24.328125 C 4.859375 -24.328125 5.4375 -24.101562 5.9375 -23.65625 C 6.4375 -23.21875 6.6875 -22.71875 6.6875 -22.15625 L 6.6875 -22.046875 C 6.6875 -21.660156 6.535156 -20.773438 6.234375 -19.390625 C 5.941406 -18.015625 5.640625 -16.726562 5.328125 -15.53125 L 4.890625 -13.765625 L 2.953125 -13.765625 C 2.140625 -18.398438 1.734375 -21.160156 1.734375 -22.046875 L 1.734375 -22.15625 C 1.734375 -22.71875 1.976562 -23.21875 2.46875 -23.65625 Z M 2.46875 -23.65625 "/></g></g></g><g fill="#faffff" fill-opacity="1"><g transform="translate(160.241512, 287.713018)"><g/></g></g><g fill="#faffff" fill-opacity="1"><g transform="translate(168.146758, 287.713018)"><g><path d="M 14.453125 -4.921875 C 15.285156 -4.921875 16.09375 -5.046875 16.875 -5.296875 C 17.65625 -5.546875 18.226562 -5.789062 18.59375 -6.03125 L 19.140625 -6.40625 L 21.46875 -1.765625 C 21.382812 -1.710938 21.273438 -1.632812 21.140625 -1.53125 C 21.003906 -1.4375 20.691406 -1.257812 20.203125 -1 C 19.710938 -0.738281 19.1875 -0.507812 18.625 -0.3125 C 18.0625 -0.125 17.328125 0.046875 16.421875 0.203125 C 15.515625 0.359375 14.578125 0.4375 13.609375 0.4375 C 11.390625 0.4375 9.285156 -0.109375 7.296875 -1.203125 C 5.304688 -2.296875 3.703125 -3.796875 2.484375 -5.703125 C 1.273438 -7.617188 0.671875 -9.6875 0.671875 -11.90625 C 0.671875 -13.582031 1.023438 -15.191406 1.734375 -16.734375 C 2.453125 -18.285156 3.40625 -19.609375 4.59375 -20.703125 C 5.78125 -21.804688 7.164062 -22.6875 8.75 -23.34375 C 10.332031 -24 11.953125 -24.328125 13.609375 -24.328125 C 15.160156 -24.328125 16.585938 -24.144531 17.890625 -23.78125 C 19.191406 -23.414062 20.113281 -23.050781 20.65625 -22.6875 L 21.46875 -22.125 L 19.140625 -17.5 C 19.015625 -17.613281 18.816406 -17.75 18.546875 -17.90625 C 18.273438 -18.070312 17.734375 -18.289062 16.921875 -18.5625 C 16.109375 -18.832031 15.285156 -18.96875 14.453125 -18.96875 C 13.140625 -18.96875 11.960938 -18.753906 10.921875 -18.328125 C 9.878906 -17.910156 9.050781 -17.351562 8.4375 -16.65625 C 7.832031 -15.957031 7.367188 -15.207031 7.046875 -14.40625 C 6.734375 -13.601562 6.578125 -12.789062 6.578125 -11.96875 C 6.578125 -10.144531 7.253906 -8.515625 8.609375 -7.078125 C 9.972656 -5.640625 11.921875 -4.921875 14.453125 -4.921875 Z M 14.453125 -4.921875 "/></g></g></g><g fill="#faffff" fill-opacity="1"><g transform="translate(189.951345, 287.713018)"><g><path d="M 7.1875 -23.90625 L 7.1875 -4.78125 L 15.40625 -4.78125 L 15.40625 0 L 1.734375 0 L 1.734375 -23.90625 Z M 7.1875 -23.90625 "/></g></g></g><g fill="#faffff" fill-opacity="1"><g transform="translate(206.312024, 287.713018)"><g><path d="M 7.1875 -23.90625 L 7.1875 0 L 1.734375 0 L 1.734375 -23.90625 Z M 7.1875 -23.90625 "/></g></g></g><g fill="#faffff" fill-opacity="1"><g transform="translate(215.230759, 287.713018)"><g><path d="M 7.1875 -14.828125 L 7.1875 0 L 1.734375 0 L 1.734375 -23.90625 L 7.1875 -23.90625 L 16.6875 -9.0625 L 16.75 -9.0625 L 16.75 -23.90625 L 22.1875 -23.90625 L 22.1875 0 L 16.75 0 L 7.25 -14.828125 Z M 7.1875 -14.828125 "/></g></g></g><g fill="#faffff" fill-opacity="1"><g transform="translate(239.149195, 287.713018)"><g><path d="M 7.1875 -23.90625 L 7.1875 0 L 1.734375 0 L 1.734375 -23.90625 Z M 7.1875 -23.90625 "/></g></g></g><g fill="#faffff" fill-opacity="1"><g transform="translate(248.06793, 287.713018)"><g><path d="M 14.453125 -4.921875 C 15.285156 -4.921875 16.09375 -5.046875 16.875 -5.296875 C 17.65625 -5.546875 18.226562 -5.789062 18.59375 -6.03125 L 19.140625 -6.40625 L 21.46875 -1.765625 C 21.382812 -1.710938 21.273438 -1.632812 21.140625 -1.53125 C 21.003906 -1.4375 20.691406 -1.257812 20.203125 -1 C 19.710938 -0.738281 19.1875 -0.507812 18.625 -0.3125 C 18.0625 -0.125 17.328125 0.046875 16.421875 0.203125 C 15.515625 0.359375 14.578125 0.4375 13.609375 0.4375 C 11.390625 0.4375 9.285156 -0.109375 7.296875 -1.203125 C 5.304688 -2.296875 3.703125 -3.796875 2.484375 -5.703125 C 1.273438 -7.617188 0.671875 -9.6875 0.671875 -11.90625 C 0.671875 -13.582031 1.023438 -15.191406 1.734375 -16.734375 C 2.453125 -18.285156 3.40625 -19.609375 4.59375 -20.703125 C 5.78125 -21.804688 7.164062 -22.6875 8.75 -23.34375 C 10.332031 -24 11.953125 -24.328125 13.609375 -24.328125 C 15.160156 -24.328125 16.585938 -24.144531 17.890625 -23.78125 C 19.191406 -23.414062 20.113281 -23.050781 20.65625 -22.6875 L 21.46875 -22.125 L 19.140625 -17.5 C 19.015625 -17.613281 18.816406 -17.75 18.546875 -17.90625 C 18.273438 -18.070312 17.734375 -18.289062 16.921875 -18.5625 C 16.109375 -18.832031 15.285156 -18.96875 14.453125 -18.96875 C 13.140625 -18.96875 11.960938 -18.753906 10.921875 -18.328125 C 9.878906 -17.910156 9.050781 -17.351562 8.4375 -16.65625 C 7.832031 -15.957031 7.367188 -15.207031 7.046875 -14.40625 C 6.734375 -13.601562 6.578125 -12.789062 6.578125 -11.96875 C 6.578125 -10.144531 7.253906 -8.515625 8.609375 -7.078125 C 9.972656 -5.640625 11.921875 -4.921875 14.453125 -4.921875 Z M 14.453125 -4.921875 "/></g></g></g></svg>